<svg width="24" height="24" viewBox="0 0 24 24" fill="none" xmlns="http://www.w3.org/2000/svg">
<path fill-rule="evenodd" clip-rule="evenodd" d="M24 12C24 5.4 18.6 0 12 0C5.4 0 0 5.4 0 12C0 18 4.4 23 10.1 23.9V15.5H7.1V12H10.1V9.4C10.1 6.4 11.9 4.7 14.6 4.7C15.9 4.7 17.3 4.9 17.3 4.9V7.9H15.8C14.3 7.9 13.8 8.8 13.8 9.8V12H17.1L16.6 15.5H13.8V23.9C19.6 23 24 18 24 12Z" fill="#002C6C"/>
<path d="M16.7 15.5001L17.2 12.0001H13.9V9.7001C13.9 8.8001 14.4 7.8001 15.9 7.8001H17.4V4.8001C17.4 4.8001 16 4.6001 14.7 4.6001C12 4.6001 10.2 6.3001 10.2 9.3001V12.0001H7.20001V15.5001H10.2V23.9001C10.7 24.0001 11.4 24.0001 12 24.0001C12.6 24.0001 13.3 24.0001 13.9 23.9001V15.5001H16.7Z" fill="white"/>
</svg>
