<svg width="24" height="24" viewBox="0 0 24 24" fill="none" xmlns="http://www.w3.org/2000/svg">
<circle cx="12" cy="12" r="12" fill="#002C6C"/>
<mask id="mask0_1028_1368" style="mask-type:alpha" maskUnits="userSpaceOnUse" x="5" y="5" width="14" height="14">
<path fill-rule="evenodd" clip-rule="evenodd" d="M5 5.02783H18.9956V18.9681H5V5.02783Z" fill="white"/>
</mask>
<g mask="url(#mask0_1028_1368)">
<path fill-rule="evenodd" clip-rule="evenodd" d="M11.9978 5.02783C10.0973 5.02783 9.85897 5.03586 9.11261 5.06978C8.36775 5.10361 7.85908 5.22145 7.41394 5.39377C6.95381 5.57187 6.56353 5.8102 6.1745 6.19769C5.78544 6.58521 5.54619 6.97392 5.36736 7.43224C5.19436 7.87561 5.07608 8.38227 5.04208 9.12419C5.00803 9.86763 5 10.105 5 11.998C5 13.8909 5.00803 14.1283 5.04208 14.8717C5.07608 15.6136 5.19436 16.1203 5.36736 16.5637C5.54619 17.022 5.78544 17.4107 6.1745 17.7982C6.56353 18.1857 6.95381 18.424 7.41394 18.6022C7.85908 18.7745 8.36775 18.8923 9.11261 18.9262C9.85897 18.9601 10.0973 18.9681 11.9978 18.9681C13.8983 18.9681 14.1366 18.9601 14.8829 18.9262C15.6278 18.8923 16.1365 18.7745 16.5816 18.6022C17.0418 18.424 17.432 18.1857 17.8211 17.7982C18.2101 17.4107 18.4494 17.022 18.6282 16.5637C18.8012 16.1203 18.9195 15.6136 18.9535 14.8717C18.9875 14.1283 18.9956 13.8909 18.9956 11.998C18.9956 10.105 18.9875 9.86763 18.9535 9.12419C18.9195 8.38227 18.8012 7.87561 18.6282 7.43224C18.4494 6.97392 18.2101 6.58521 17.8211 6.19769C17.432 5.8102 17.0418 5.57187 16.5816 5.39377C16.1365 5.22145 15.6278 5.10361 14.8829 5.06978C14.1366 5.03586 13.8983 5.02783 11.9978 5.02783ZM11.9978 6.28371C13.8663 6.28371 14.0876 6.29079 14.8255 6.32432C15.5078 6.35534 15.8783 6.46889 16.1249 6.56434C16.4515 6.69079 16.6846 6.84183 16.9295 7.08572C17.1744 7.32964 17.326 7.56183 17.453 7.88718C17.5488 8.13279 17.6628 8.50185 17.6939 9.18143C17.7276 9.9164 17.7347 10.1369 17.7347 11.9979C17.7347 13.8591 17.7276 14.0795 17.6939 14.8145C17.6628 15.4941 17.5488 15.8631 17.453 16.1087C17.326 16.4341 17.1744 16.6663 16.9295 16.9102C16.6846 17.1541 16.4515 17.3051 16.1249 17.4316C15.8783 17.527 15.5078 17.6406 14.8255 17.6716C14.0877 17.7051 13.8664 17.7122 11.9978 17.7122C10.1291 17.7122 9.90786 17.7051 9.17009 17.6716C8.48781 17.6406 8.11725 17.527 7.87067 17.4316C7.54406 17.3051 7.31092 17.1541 7.06606 16.9102C6.8212 16.6663 6.66953 16.4341 6.54259 16.1087C6.44678 15.8631 6.33278 15.4941 6.30164 14.8145C6.26798 14.0795 6.26086 13.8591 6.26086 11.9979C6.26086 10.1369 6.26798 9.9164 6.30164 9.18143C6.33278 8.50185 6.44678 8.13279 6.54259 7.88718C6.66953 7.56183 6.8212 7.32964 7.06606 7.08575C7.31092 6.84183 7.54406 6.69079 7.87067 6.56434C8.11725 6.46889 8.48781 6.35534 9.17006 6.32432C9.90798 6.29079 10.1293 6.28371 11.9978 6.28371Z" fill="white"/>
</g>
<path fill-rule="evenodd" clip-rule="evenodd" d="M11.9978 14.3216C10.7095 14.3216 9.66516 13.2813 9.66516 11.9982C9.66516 10.715 10.7095 9.67482 11.9978 9.67482C13.286 9.67482 14.3304 10.715 14.3304 11.9982C14.3304 13.2813 13.286 14.3216 11.9978 14.3216ZM11.9978 8.41895C10.0132 8.41895 8.4043 10.0214 8.4043 11.9982C8.4043 13.975 10.0132 15.5775 11.9978 15.5775C13.9824 15.5775 15.5912 13.975 15.5912 11.9982C15.5912 10.0214 13.9824 8.41895 11.9978 8.41895Z" fill="white"/>
<path fill-rule="evenodd" clip-rule="evenodd" d="M16.573 8.27732C16.573 8.73927 16.197 9.11372 15.7332 9.11372C15.2695 9.11372 14.8935 8.73927 14.8935 8.27732C14.8935 7.81538 15.2695 7.44092 15.7332 7.44092C16.197 7.44092 16.573 7.81538 16.573 8.27732Z" fill="white"/>
</svg>
