<svg width="24" height="24" viewBox="0 0 24 24" fill="none" xmlns="http://www.w3.org/2000/svg">
<circle cx="12" cy="12" r="12" fill="#002C6C"/>
<path fill-rule="evenodd" clip-rule="evenodd" d="M7.39999 5.1001C6.39999 5.1001 5.79999 5.7001 5.79999 6.6001C5.79999 7.4001 6.39999 8.1001 7.39999 8.1001C8.39999 8.1001 8.99999 7.4001 8.99999 6.6001C8.99999 5.8001 8.39999 5.1001 7.39999 5.1001ZM19.2 13.0001V17.9001H16.3V13.3001C16.3 12.1001 15.9 11.3001 14.8 11.3001C14 11.3001 13.5 11.8001 13.3 12.3001C13.2 12.5001 13.2 12.7001 13.2 13.0001V17.8001H10.3V9.20009H13.2V10.4001C13.6 9.80009 14.3 9.00009 15.8 9.00009C17.8 9.10009 19.2 10.3001 19.2 13.0001ZM8.89998 17.9001H5.99998V9.30011H8.89998V17.9001Z" fill="#F1F2F2"/>
</svg>
