<svg width="117" height="71" viewBox="0 0 117 71" fill="none" xmlns="http://www.w3.org/2000/svg">
<path d="M72.3761 60.2418H76.9863C78.2698 60.2418 79.2595 60.5998 79.9236 61.2647C80.4855 61.8273 80.7857 62.6201 80.7857 63.5982C80.7857 65.2285 79.9045 66.2514 78.6274 66.7244L81.0922 70.3302H78.4997L76.3095 67.1016H74.5982V70.3302H72.3825V60.2418H72.3761ZM76.8395 65.1453C77.9186 65.1453 78.538 64.57 78.538 63.6877C78.538 62.7351 77.8739 62.2429 76.7948 62.2429H74.5918V65.1453H76.8395Z" fill="#F26334"/>
<path d="M82.3755 67.613V62.6072H84.5657V66.9225C84.5657 67.9582 85.0574 68.4953 85.8939 68.4953C86.7304 68.4953 87.2604 67.9646 87.2604 66.9225V62.6072H89.4506V70.3365H87.2604V69.2432C86.7559 69.889 86.1046 70.4835 84.9999 70.4835C83.3397 70.4835 82.3755 69.3839 82.3755 67.613Z" fill="#F26334"/>
<path d="M90.6701 69.3137L91.6087 67.8689C92.4452 68.4762 93.32 68.7895 94.0416 68.7895C94.6737 68.7895 94.9611 68.5593 94.9611 68.1821C94.9611 67.7091 94.214 67.5492 93.3647 67.2871C92.2856 66.9675 91.0596 66.4624 91.0596 64.9344C91.0596 63.3617 92.3239 62.4795 93.8819 62.4795C94.8653 62.4795 95.9253 62.8119 96.7618 63.3745L95.9253 64.8897C95.1654 64.4422 94.3992 64.1673 93.8372 64.1673C93.3009 64.1673 93.0327 64.3974 93.0327 64.7299C93.0327 65.1646 93.767 65.3628 94.6035 65.6505C95.6826 66.0085 96.9406 66.5327 96.9406 67.9712C96.9406 69.6909 95.6571 70.4645 93.9905 70.4645C92.8986 70.4837 91.6917 70.1193 90.6701 69.3137Z" fill="#F26334"/>
<path d="M97.6238 69.3137L98.5624 67.8689C99.3989 68.4762 100.274 68.7895 100.995 68.7895C101.627 68.7895 101.915 68.5593 101.915 68.1821C101.915 67.7091 101.168 67.5492 100.318 67.2871C99.2393 66.9675 98.0133 66.4624 98.0133 64.9344C98.0133 63.3617 99.284 62.4795 100.836 62.4795C101.819 62.4795 102.879 62.8119 103.715 63.3745L102.879 64.8897C102.113 64.4422 101.353 64.1673 100.791 64.1673C100.261 64.1673 99.9864 64.3974 99.9864 64.7299C99.9864 65.1646 100.721 65.3628 101.557 65.6505C102.636 66.0085 103.888 66.5327 103.888 67.9712C103.888 69.6909 102.604 70.4645 100.938 70.4645C99.8587 70.4837 98.6454 70.1193 97.6238 69.3137Z" fill="#F26334"/>
<path d="M105.376 59.8135H107.681V61.757H105.376V59.8135ZM105.433 62.6073H107.624V70.3365H105.433V62.6073Z" fill="#F26334"/>
<path d="M109.092 68.0861C109.092 66.3983 110.376 65.6184 112.202 65.6184C112.981 65.6184 113.543 65.7462 114.092 65.938V65.8102C114.092 64.9023 113.53 64.3973 112.438 64.3973C111.602 64.3973 111.014 64.5571 110.305 64.8128L109.763 63.1378C110.612 62.767 111.448 62.5177 112.757 62.5177C113.951 62.5177 114.82 62.8374 115.363 63.3808C115.937 63.9562 116.199 64.8064 116.199 65.8485V70.3365H114.079V69.499C113.549 70.0936 112.808 70.4835 111.748 70.4835C110.286 70.4835 109.092 69.646 109.092 68.0861ZM114.117 67.613V67.223C113.741 67.0504 113.249 66.9354 112.719 66.9354C111.78 66.9354 111.206 67.3125 111.206 68.0286C111.206 68.6231 111.697 68.9684 112.4 68.9684C113.428 68.9684 114.117 68.4058 114.117 67.613Z" fill="#F26334"/>
<path d="M70.1002 35.3167C70.1002 54.6426 54.4418 70.3135 35.1457 70.3135C15.8366 70.3135 0.184631 54.6491 0.184631 35.3167C0.184631 15.9843 15.8366 0.313477 35.1457 0.313477C54.4418 0.313477 70.1002 15.9843 70.1002 35.3167Z" fill="#002C6C"/>
<path d="M42.2641 24.7762C37.0294 24.7762 33.2289 29.0252 33.2289 34.8732V35.1082C33.2289 41.1128 36.8469 45.1529 42.2315 45.1529C45.2237 45.1529 47.4663 43.9259 48.8548 42.8555V34.201H42.0946V36.4201H46.4102V41.5306L46.2472 41.648C45.2042 42.3856 43.7961 42.8033 42.3815 42.8033C38.5549 42.8033 35.9799 39.6704 35.9799 35.0103V34.8341C35.9799 30.3893 38.6005 27.1585 42.212 27.1585C44.3176 27.1585 45.6344 27.9287 46.697 28.8294L48.2485 26.7604C46.4754 25.3702 44.6631 24.7762 42.2641 24.7762Z" fill="white"/>
<path d="M52.5444 42.4979C54.5457 44.2405 56.8599 45.1217 59.4349 45.1217C63.1898 45.1217 65.7062 42.8895 65.7062 39.5739C65.7062 36.8587 64.2655 35.3184 60.3802 33.8238C56.8469 32.4531 55.8756 31.6112 55.8756 29.9077C55.8756 28.2499 57.2641 27.1142 59.2589 27.1142C60.7257 27.1142 62.2511 27.7081 63.7896 28.8895L65.2694 26.8858C63.581 25.5021 61.5862 24.8037 59.3437 24.8037C55.7387 24.8037 53.2159 27.0098 53.2159 30.1753C53.2159 33.3473 55.2107 34.6853 58.8873 36.069C62.0555 37.2373 63.0725 38.138 63.0725 39.7827C63.0725 41.5776 61.5862 42.8177 59.4545 42.8177C57.1207 42.8177 55.3867 41.6559 54.1024 40.5529L52.5444 42.4979Z" fill="white"/>
<path d="M72.7272 45.0476H85.0154V42.6131H80.6151V24.7231H78.4965L72.6685 27.0597L73.2031 29.6378L77.7207 27.8299V42.6131H72.7272V45.0476Z" fill="#002C6C"/>
<path d="M61.8923 6.44932V6.42974C61.8923 4.56307 63.4047 2.99011 65.3082 2.99011C67.2313 2.99011 68.7241 4.54349 68.7241 6.41016V6.42974C68.7241 8.30293 67.2117 9.86937 65.3082 9.86937C63.3851 9.86937 61.8923 8.31599 61.8923 6.44932ZM67.994 6.42974V6.41016C67.994 4.92857 66.8402 3.70806 65.3082 3.70806C63.7958 3.70806 62.6289 4.94815 62.6289 6.42974V6.44932C62.6289 7.9309 63.7762 9.15142 65.3082 9.15142C66.8271 9.15142 67.994 7.91132 67.994 6.42974ZM63.9914 4.70666H65.5494C66.3186 4.70666 66.8858 5.05911 66.8858 5.80969C66.8858 6.33836 66.5924 6.69081 66.1491 6.84093L66.9901 8.03533H66.0188L65.3017 6.99105H64.7867V8.03533H63.9783V4.70666H63.9914ZM65.4907 6.31878C65.8558 6.31878 66.0579 6.13603 66.0579 5.86191C66.0579 5.5682 65.8362 5.40503 65.4907 5.40503H64.7932V6.31878H65.4907V6.31878Z" fill="#002C6C"/>
<path d="M7.31622 35.3163C7.31622 19.3518 19.5849 6.25898 35.1977 4.9732L35.1456 4.86877H35.1391C18.3397 4.86877 4.72168 18.5033 4.72168 35.3228C4.72168 52.1359 18.3332 65.7704 35.1391 65.7704H35.1456L35.1977 65.6594C19.5849 64.3671 7.31622 51.2809 7.31622 35.3163Z" fill="white"/>
<path d="M14.1151 35.3166C14.1151 21.9106 24.2911 10.8933 37.329 9.5684L37.2704 9.43787C23.2025 9.68588 11.8791 21.1731 11.8791 35.3166C11.8791 49.4537 23.2025 60.9409 37.2704 61.1889L37.329 61.0584C24.2911 59.7334 14.1151 48.7162 14.1151 35.3166Z" fill="white"/>
<path d="M20.622 35.3162C20.622 24.3707 28.8423 15.3637 39.4421 14.1171L39.3769 13.9735C27.871 14.2868 18.6402 23.718 18.6402 35.3162C18.6402 46.9078 27.871 56.339 39.3769 56.6523L39.4421 56.5087C28.8489 55.2621 20.622 46.2551 20.622 35.3162Z" fill="white"/>
<path d="M26.8728 35.316C26.8728 26.7529 33.281 19.6974 41.56 18.6857L41.5079 18.5682C32.4661 18.8032 25.2105 26.2111 25.2105 35.3225C25.2105 44.4274 32.4661 51.8354 41.5079 52.0703L41.56 51.9528C33.2875 50.9281 26.8728 43.8727 26.8728 35.316Z" fill="white"/>
</svg>
