<svg width="24" height="24" viewBox="0 0 24 24" fill="none" xmlns="http://www.w3.org/2000/svg">
<rect x="4" y="6" width="17" height="12" fill="white"/>
<path fill-rule="evenodd" clip-rule="evenodd" d="M0 12C0 5.4 5.4 0 12 0C18.6 0 24 5.4 24 12C24 18.6 18.6 24 12 24C5.4 24 0 18.6 0 12ZM19.2 15.6C19.5 14.4 19.5 12 19.5 12C19.5 12 19.5 9.59999 19.2 8.39999C19 7.79999 18.5 7.29999 17.9 7.09999C16.7 6.79999 12 6.79999 12 6.79999C12 6.79999 7.3 6.79999 6.1 7.09999C5.5 7.19999 5 7.79999 4.8 8.39999C4.5 9.59999 4.5 12 4.5 12C4.5 12 4.5 14.4 4.8 15.6C5 16.2 5.5 16.7 6.1 16.9C7.3 17.2 12 17.2 12 17.2C12 17.2 16.7 17.2 17.9 16.9C18.5 16.7 19 16.2 19.2 15.6ZM14.4 12L10.5 14.2V9.79999L14.4 12Z" fill="#002C6C"/>
</svg>
